STARTFONT 2.1
FONT pelm.supsub.9
SIZE 16 72 72
FONTBOUNDINGBOX 9 16 0 -3
STARTPROPERTIES 4
FONT_DESCENT 3
FONT_ASCENT 13
DEFAULT_CHAR 0
COPYRIGHT "Copyright (C) 1985 Bigelow & Holmes Inc. All rights reserved."
ENDPROPERTIES
CHARS 31
STARTCHAR ch-0
ENCODING 0
SWIDTH 562 0
DWIDTH 9 0
BBX 9 16 0 -3
BITMAP
0000
1800
2400
6600
6600
6600
2400
1800
0000
0000
0000
0000
0000
0000
0000
0000
ENDCHAR
STARTCHAR ch-1
ENCODING 1
SWIDTH 562 0
DWIDTH 9 0
BBX 9 16 0 -3
BITMAP
0000
1800
3800
1800
1800
1800
1800
3c00
0000
0000
0000
0000
0000
0000
0000
0000
ENDCHAR
STARTCHAR ch-2
ENCODING 2
SWIDTH 562 0
DWIDTH 9 0
BBX 9 16 0 -3
BITMAP
0000
3c00
6c00
0c00
1800
3000
7c00
7c00
0000
0000
0000
0000
0000
0000
0000
0000
ENDCHAR
STARTCHAR ch-3
ENCODING 3
SWIDTH 562 0
DWIDTH 9 0
BBX 9 16 0 -3
BITMAP
0000
3c00
6600
0600
1c00
0600
6600
3c00
0000
0000
0000
0000
0000
0000
0000
0000
ENDCHAR
STARTCHAR ch-4
ENCODING 4
SWIDTH 562 0
DWIDTH 9 0
BBX 9 16 0 -3
BITMAP
0000
0c00
1c00
2c00
4c00
7c00
0c00
1e00
0000
0000
0000
0000
0000
0000
0000
0000
ENDCHAR
STARTCHAR ch-5
ENCODING 5
SWIDTH 562 0
DWIDTH 9 0
BBX 9 16 0 -3
BITMAP
0000
7c00
7c00
6000
3c00
0600
6600
3c00
0000
0000
0000
0000
0000
0000
0000
0000
ENDCHAR
STARTCHAR ch-6
ENCODING 6
SWIDTH 562 0
DWIDTH 9 0
BBX 9 16 0 -3
BITMAP
0000
3800
6400
6000
7800
6400
6400
3800
0000
0000
0000
0000
0000
0000
0000
0000
ENDCHAR
STARTCHAR ch-7
ENCODING 7
SWIDTH 562 0
DWIDTH 9 0
BBX 9 16 0 -3
BITMAP
0000
7c00
7c00
0c00
1800
3000
3000
3000
0000
0000
0000
0000
0000
0000
0000
0000
ENDCHAR
STARTCHAR ch-8
ENCODING 8
SWIDTH 562 0
DWIDTH 9 0
BBX 9 16 0 -3
BITMAP
0000
3c00
6600
7600
3c00
6e00
6600
3c00
0000
0000
0000
0000
0000
0000
0000
0000
ENDCHAR
STARTCHAR ch-9
ENCODING 9
SWIDTH 562 0
DWIDTH 9 0
BBX 9 16 0 -3
BITMAP
0000
3800
4c00
4c00
3c00
0c00
4c00
3800
0000
0000
0000
0000
0000
0000
0000
0000
ENDCHAR
STARTCHAR ch-10
ENCODING 10
SWIDTH 562 0
DWIDTH 9 0
BBX 9 16 0 -3
BITMAP
0000
0000
1800
1800
7e00
7e00
1800
1800
0000
0000
0000
0000
0000
0000
0000
0000
ENDCHAR
STARTCHAR ch-11
ENCODING 11
SWIDTH 562 0
DWIDTH 9 0
BBX 9 16 0 -3
BITMAP
0000
0000
0000
0000
7e00
7e00
0000
0000
0000
0000
0000
0000
0000
0000
0000
0000
ENDCHAR
STARTCHAR ch-12
ENCODING 12
SWIDTH 562 0
DWIDTH 9 0
BBX 9 16 0 -3
BITMAP
0000
0000
0000
7e00
7e00
0000
7e00
7e00
0000
0000
0000
0000
0000
0000
0000
0000
ENDCHAR
STARTCHAR ch-13
ENCODING 13
SWIDTH 562 0
DWIDTH 9 0
BBX 9 16 0 -3
BITMAP
0000
0c00
1800
3000
3000
3000
3000
3000
1800
0c00
0000
0000
0000
0000
0000
0000
ENDCHAR
STARTCHAR ch-14
ENCODING 14
SWIDTH 562 0
DWIDTH 9 0
BBX 9 16 0 -3
BITMAP
0000
3000
1800
0c00
0c00
0c00
0c00
0c00
1800
3000
0000
0000
0000
0000
0000
0000
ENDCHAR
STARTCHAR ch-15
ENCODING 15
SWIDTH 562 0
DWIDTH 9 0
BBX 9 16 0 -3
BITMAP
0000
0000
0000
5c00
6600
6600
6600
6600
0000
0000
0000
0000
0000
0000
0000
0000
ENDCHAR
STARTCHAR ch-16
ENCODING 16
SWIDTH 562 0
DWIDTH 9 0
BBX 9 16 0 -3
BITMAP
0000
0000
0000
0000
0000
0000
0000
1800
2400
6600
6600
6600
2400
1800
0000
0000
ENDCHAR
STARTCHAR ch-17
ENCODING 17
SWIDTH 562 0
DWIDTH 9 0
BBX 9 16 0 -3
BITMAP
0000
0000
0000
0000
0000
0000
0000
1800
3800
1800
1800
1800
1800
3c00
0000
0000
ENDCHAR
STARTCHAR ch-18
ENCODING 18
SWIDTH 562 0
DWIDTH 9 0
BBX 9 16 0 -3
BITMAP
0000
0000
0000
0000
0000
0000
0000
3c00
6c00
0c00
1800
3000
7c00
7c00
0000
0000
ENDCHAR
STARTCHAR ch-19
ENCODING 19
SWIDTH 562 0
DWIDTH 9 0
BBX 9 16 0 -3
BITMAP
0000
0000
0000
0000
0000
0000
0000
3c00
6600
0600
1c00
0600
6600
3c00
0000
0000
ENDCHAR
STARTCHAR ch-20
ENCODING 20
SWIDTH 562 0
DWIDTH 9 0
BBX 9 16 0 -3
BITMAP
0000
0000
0000
0000
0000
0000
0000
0c00
1c00
2c00
4c00
7c00
0c00
1e00
0000
0000
ENDCHAR
STARTCHAR ch-21
ENCODING 21
SWIDTH 562 0
DWIDTH 9 0
BBX 9 16 0 -3
BITMAP
0000
0000
0000
0000
0000
0000
0000
7c00
7c00
6000
3c00
0600
6600
3c00
0000
0000
ENDCHAR
STARTCHAR ch-22
ENCODING 22
SWIDTH 562 0
DWIDTH 9 0
BBX 9 16 0 -3
BITMAP
0000
0000
0000
0000
0000
0000
0000
3800
6400
6000
7800
6400
6400
3800
0000
0000
ENDCHAR
STARTCHAR ch-23
ENCODING 23
SWIDTH 562 0
DWIDTH 9 0
BBX 9 16 0 -3
BITMAP
0000
0000
0000
0000
0000
0000
0000
7c00
7c00
0c00
1800
3000
3000
3000
0000
0000
ENDCHAR
STARTCHAR ch-24
ENCODING 24
SWIDTH 562 0
DWIDTH 9 0
BBX 9 16 0 -3
BITMAP
0000
0000
0000
0000
0000
0000
0000
3c00
6600
7600
3c00
6e00
6600
3c00
0000
0000
ENDCHAR
STARTCHAR ch-25
ENCODING 25
SWIDTH 562 0
DWIDTH 9 0
BBX 9 16 0 -3
BITMAP
0000
0000
0000
0000
0000
0000
0000
3800
4c00
4c00
3c00
0c00
4c00
3800
0000
0000
ENDCHAR
STARTCHAR ch-26
ENCODING 26
SWIDTH 562 0
DWIDTH 9 0
BBX 9 16 0 -3
BITMAP
0000
0000
0000
0000
0000
0000
0000
0000
1800
1800
7e00
7e00
1800
1800
0000
0000
ENDCHAR
STARTCHAR ch-27
ENCODING 27
SWIDTH 562 0
DWIDTH 9 0
BBX 9 16 0 -3
BITMAP
0000
0000
0000
0000
0000
0000
0000
0000
0000
0000
7e00
7e00
0000
0000
0000
0000
ENDCHAR
STARTCHAR ch-28
ENCODING 28
SWIDTH 562 0
DWIDTH 9 0
BBX 9 16 0 -3
BITMAP
0000
0000
0000
0000
0000
0000
0000
0000
0000
7e00
7e00
0000
7e00
7e00
0000
0000
ENDCHAR
STARTCHAR ch-29
ENCODING 29
SWIDTH 562 0
DWIDTH 9 0
BBX 9 16 0 -3
BITMAP
0000
0000
0000
0000
0000
0000
0000
0c00
1800
3000
3000
3000
3000
3000
1800
0c00
ENDCHAR
STARTCHAR ch-30
ENCODING 30
SWIDTH 562 0
DWIDTH 9 0
BBX 9 16 0 -3
BITMAP
0000
0000
0000
0000
0000
0000
0000
3000
1800
0c00
0c00
0c00
0c00
0c00
1800
3000
ENDCHAR
ENDFONT
